# xmcd CD database file
#
# Track frame offsets:
#	150
#	17965
#	40837
#	64395
#	81997
#	102755
#	121895
#	139832
#	160797
#	178975
#	197350
#	221137
#
# Disc length: 3187 seconds
#
# Revision: 0
# Processed by: cddbd v1.5PL3 Copyright (c) Steve Scherf et al.
# Submitted via: CDex 1.51
#
DISCID=ab0c710c
DTITLE=the Getaway People - the Getaway People
DYEAR=1997
DGENRE=Rock
TTITLE0=She Gave Me Love
TTITLE1=Blind
TTITLE2=Does My Colour
TTITLE3=Mr.E
TTITLE4=Chocolate
TTITLE5=Bingo Board
TTITLE6=Limo
TTITLE7=Juicy Lucy
TTITLE8=Plastic People
TTITLE9=Get A Handle On It
TTITLE10=Rockin' The Cradie
TTITLE11=Egomaniac
EXTD=YEAR: 1997
EXTT0=
EXTT1=
EXTT2=
EXTT3=
EXTT4=
EXTT5=
EXTT6=
EXTT7=
EXTT8=
EXTT9=
EXTT10=
EXTT11=
PLAYORDER=
